<svg preserveAspectRatio="none" width="100%" height="100%" overflow="visible" style="display: block;" viewBox="0 0 2204 693" fill="none" xmlns="http://www.w3.org/2000/svg">
<g id="Background" opacity="0.1">
<rect id="Circle" x="-2.54719e-06" y="4.29702e-05" width="985.903" height="81.528" rx="40.764" fill="var(--fill-0, #39C0C0)"/>
<rect id="Circle_2" x="1029.4" y="4.38835e-05" width="217.479" height="81.528" rx="40.764" fill="var(--fill-0, #39C0C0)"/>
<rect id="Circle_3" x="1536.85" y="122.292" width="217.479" height="81.528" rx="40.764" fill="var(--fill-0, #39C0C0)"/>
<rect id="Circle_4" x="1986.3" y="244.584" width="217.479" height="81.528" rx="40.764" fill="var(--fill-0, #39C0C0)"/>
<rect id="Circle_5" x="1551.35" y="489.168" width="217.479" height="81.528" rx="40.764" fill="var(--fill-0, #39C0C0)"/>
<rect id="Circle_6" x="1029.4" y="611.46" width="217.479" height="81.528" rx="40.764" fill="var(--fill-0, #39C0C0)"/>
<rect id="Circle_7" x="57.9946" y="122.292" width="1435.36" height="81.528" rx="40.764" fill="var(--fill-0, #39C0C0)"/>
<rect id="Circle_8" x="173.983" y="244.584" width="1768.83" height="81.528" rx="40.764" fill="var(--fill-0, #39C0C0)"/>
<rect id="Circle_9" x="173.983" y="366.876" width="1522.35" height="81.528" rx="40.764" fill="var(--fill-0, #39C0C0)"/>
<rect id="Circle_10" x="57.9938" y="489.168" width="1449.86" height="81.528" rx="40.764" fill="var(--fill-0, #39C0C0)"/>
<rect id="Circle_11" x="57.9943" y="611.46" width="927.909" height="81.528" rx="40.764" fill="var(--fill-0, #39C0C0)"/>
</g>
</svg>
