<svg preserveAspectRatio="none" width="100%" height="100%" overflow="visible" style="display: block;" viewBox="0 0 14 8" fill="none" xmlns="http://www.w3.org/2000/svg">
<path id="Vector" d="M12.998 0.5C13.4185 0.500036 13.6447 0.986391 13.3945 1.30371L13.335 1.37012L7.35156 7.35352C7.26547 7.4396 7.15081 7.49138 7.0293 7.49902C6.90912 7.50658 6.79097 7.46947 6.69531 7.39648L6.62988 7.33887L0.658203 1.36719L0.599609 1.30078L0.577148 1.26855L0.542969 1.20703L0.539062 1.19824L0.527344 1.16992L0.510742 1.11426L0.504883 1.08301L0.500977 1.05859L0.5 1.03418V0.957031L0.500977 0.94043L0.507812 0.896484L0.511719 0.882812L0.527344 0.829102L0.538086 0.803711L0.577148 0.729492L0.605469 0.69043L0.642578 0.649414L0.696289 0.601562L0.727539 0.579102L0.790039 0.544922L0.825195 0.530273L0.885742 0.512695L0.914062 0.506836L0.935547 0.50293L0.958984 0.500977L12.998 0.5Z" fill="var(--fill-0, #0E9888)" stroke="var(--stroke-0, #0E9888)"/>
</svg>
