<svg width="48" height="52" viewBox="0 0 48 52" fill="none" xmlns="http://www.w3.org/2000/svg">
<path d="M18.6064 32.5358C14.8847 28.8141 8.89706 28.8109 5.23282 32.4751C1.56864 36.1394 1.57203 42.1268 5.29373 45.8485C9.01543 49.5701 15.0027 49.5734 18.6669 45.9092L20.4301 47.6724C15.8528 52.2496 8.44985 52.2948 3.75224 47.8278L3.53055 47.6117C-1.15295 42.9282 -1.18024 35.3619 3.46964 30.7119C8.1196 26.062 15.6861 26.0891 20.3696 30.7726L20.5857 30.9943C25.0527 35.692 25.0074 43.0951 20.4301 47.6724L18.6669 45.9092C22.3311 42.245 22.3281 36.2575 18.6064 32.5358Z" fill="white"/>
<path d="M3.42532 32.5194C2.93843 32.0325 2.93843 31.2431 3.42532 30.7563L18.4123 15.7693C18.8992 15.2824 19.6886 15.2824 20.1755 15.7693C20.6624 16.2562 20.6624 17.0456 20.1755 17.5324L5.18849 32.5194C4.7016 33.0063 3.9122 33.0063 3.42532 32.5194Z" fill="white"/>
<path d="M20.8367 15.1081C20.3498 14.6212 20.3498 13.8318 20.8367 13.3449L22.8202 11.3613C23.3071 10.8745 24.0965 10.8745 24.5834 11.3613C25.0703 11.8482 25.0703 12.6376 24.5834 13.1245L22.5998 15.1081C22.1129 15.595 21.3235 15.595 20.8367 15.1081Z" fill="white"/>
<path d="M32.7381 9.37777C32.2512 8.89089 32.2512 8.10149 32.7381 7.6146L34.7217 5.63103C35.2086 5.14414 35.998 5.14414 36.4849 5.63103C36.9717 6.11791 36.9717 6.90731 36.4849 7.3942L34.5013 9.37777C34.0144 9.86466 33.225 9.86466 32.7381 9.37777Z" fill="white"/>
<path d="M43.5375 4.74943C43.0507 4.26255 43.0507 3.47315 43.5375 2.98626L45.3007 1.22308C45.7876 0.736196 46.577 0.736196 47.0639 1.22308C47.5508 1.70997 47.5508 2.49937 47.0639 2.98626L45.3007 4.74943C44.8138 5.23632 44.0244 5.23632 43.5375 4.74943Z" fill="white"/>
<path d="M42.2152 18.414C41.7283 17.9271 41.7283 17.1377 42.2152 16.6509L44.1987 14.6673C44.6856 14.1804 45.475 14.1804 45.9619 14.6673C46.4488 15.1542 46.4488 15.9436 45.9619 16.4305L43.9783 18.414C43.4915 18.9009 42.7021 18.9009 42.2152 18.414Z" fill="white"/>
<path d="M36.2645 30.0951C35.7776 29.6082 35.7776 28.8188 36.2645 28.3319L38.248 26.3483C38.7349 25.8614 39.5243 25.8614 40.0112 26.3483C40.4981 26.8352 40.4981 27.6246 40.0112 28.1115L38.0276 30.0951C37.5407 30.582 36.7513 30.582 36.2645 30.0951Z" fill="white"/>
<path d="M7.39246 34.7234C6.90558 34.2365 6.90558 33.4471 7.39246 32.9602L30.0933 10.2594C30.5802 9.77247 31.3696 9.77247 31.8565 10.2594C32.3434 10.7462 32.3434 11.5356 31.8565 12.0225L9.15564 34.7234C8.66875 35.2103 7.87935 35.2103 7.39246 34.7234Z" fill="white"/>
<path d="M12.4616 35.8254C11.9747 35.3385 11.9747 34.5491 12.4616 34.0622L40.8928 5.63102C41.3797 5.14413 42.1691 5.14413 42.656 5.63102C43.1429 6.11791 43.1429 6.90731 42.656 7.3942L14.2248 35.8254C13.7379 36.3123 12.9485 36.3123 12.4616 35.8254Z" fill="white"/>
<path d="M15.5471 38.911C15.0603 38.4241 15.0603 37.6347 15.5471 37.1478L39.7908 12.9041C40.2777 12.4172 41.0671 12.4172 41.554 12.9041C42.0409 13.391 42.0409 14.1804 41.554 14.6673L17.3103 38.911C16.8234 39.3978 16.034 39.3978 15.5471 38.911Z" fill="white"/>
<path d="M16.6491 43.9801C16.1623 43.4932 16.1623 42.7038 16.6491 42.2169L39.7908 19.0752C40.2777 18.5883 41.0671 18.5883 41.554 19.0752C42.0409 19.5621 42.0409 20.3515 41.554 20.8384L18.4123 43.9801C17.9254 44.467 17.136 44.467 16.6491 43.9801Z" fill="white"/>
<path d="M18.6327 47.7268C18.1458 47.2399 18.1458 46.4505 18.6327 45.9636L33.6197 30.9767C34.1066 30.4898 34.896 30.4898 35.3829 30.9767C35.8698 31.4636 35.8698 32.253 35.3829 32.7398L20.3959 47.7268C19.909 48.2137 19.1196 48.2137 18.6327 47.7268Z" fill="white"/>
</svg>
